<svg width="26" height="25" viewBox="0 0 26 25" fill="none" xmlns="http://www.w3.org/2000/svg">
<path d="M4.91438 11.8105C6.48613 11.4383 7.45956 9.85826 7.0886 8.28134C6.71763 6.70442 5.14274 5.72779 3.57099 6.09998C1.99923 6.47216 1.0258 8.05223 1.39677 9.62915C1.76774 11.2061 3.34263 12.1827 4.91438 11.8105Z" fill="#5B5DF9"/>
<path d="M24.6772 9.62141C25.0444 8.04359 24.0671 6.46592 22.4944 6.09759C20.9218 5.72925 19.3493 6.70974 18.9821 8.28756C18.615 9.86539 19.5923 11.4431 21.1649 11.8114C22.7376 12.1797 24.3101 11.1992 24.6772 9.62141Z" fill="#5B5DF9"/>
<path d="M12.9744 7.30354C14.9814 7.30354 16.6142 5.66538 16.6142 3.65178C16.6142 1.63818 14.9814 2.28882e-05 12.9744 2.28882e-05C10.9674 2.28882e-05 9.33459 1.63818 9.33459 3.65178C9.33459 5.66538 10.9674 7.30354 12.9744 7.30354ZM12.9744 0.718065C14.5867 0.718065 15.8985 2.03413 15.8985 3.65178C15.8985 5.26943 14.5867 6.58549 12.9744 6.58549C11.362 6.58549 10.0503 5.26943 10.0503 3.65178C10.0503 2.03413 11.362 0.718065 12.9744 0.718065Z" fill="#5B5DF9"/>
<path d="M7.97483 14.6993V12.9042C7.97483 10.8004 9.65364 9.08835 11.7169 9.08835H14.2729C16.3361 9.08835 18.0149 10.8004 18.0149 12.9042V13.0068H15.8065H14.1298V12.3811C14.1298 11.9297 13.7617 11.5605 13.3118 11.5605H12.9335C12.4837 11.5605 12.1156 11.9297 12.1156 12.3811V15.6943C12.1156 16.0123 12.1258 16.3303 12.1361 16.6586C12.1565 17.3869 13.0358 17.6946 13.639 17.2535C13.8742 17.0894 14.048 16.8842 14.232 16.6791C14.5694 16.3201 14.9681 16.1149 15.4589 16.0636C16.42 15.9713 17.3095 16.4842 17.6367 17.3253C18.0149 18.3101 17.6571 19.3769 16.7778 19.9513C15.9292 20.495 14.9988 20.4232 14.232 19.7461C14.1195 19.6436 13.9969 19.541 13.8946 19.4282C13.5572 19.0897 13.1585 18.9768 12.6984 19.1615C12.5348 19.2333 12.4019 19.3153 12.3099 19.4282C12.0747 19.6949 12.0747 20.0334 12.0849 20.1872C12.0849 20.536 12.0952 21.3566 12.0952 22.2183V24.3929H18.0252H26V17.2022C26 14.884 24.1188 12.9966 21.8081 12.9966H18.7306V12.9042C18.7306 10.4044 16.7308 8.37031 14.2729 8.37031H11.7169C9.25899 8.37031 7.25914 10.4044 7.25914 12.9042V13.0068H4.1919C1.88124 13.0068 0 14.8942 0 17.2125V24.3929H7.97483V14.6993Z" fill="#5B5DF9"/>
</svg>
