<svg width="26" height="25" viewBox="0 0 26 25" fill="none" xmlns="http://www.w3.org/2000/svg">
<path d="M4.9144 11.8106C6.48616 11.4384 7.45959 9.8583 7.08862 8.28138C6.71765 6.70446 5.14276 5.72784 3.57101 6.10002C1.99926 6.47221 1.02583 8.05227 1.39679 9.62919C1.76776 11.2061 3.34265 12.1827 4.9144 11.8106Z" fill="white"/>
<path d="M24.6772 9.62136C25.0443 8.04353 24.0671 6.46586 22.4944 6.09753C20.9218 5.7292 19.3492 6.70968 18.9821 8.28751C18.615 9.86533 19.5923 11.443 21.1649 11.8113C22.7376 12.1797 24.3101 11.1992 24.6772 9.62136Z" fill="white"/>
<path d="M12.9744 7.30351C14.9814 7.30351 16.6142 5.66535 16.6142 3.65176C16.6142 1.63816 14.9814 0 12.9744 0C10.9674 0 9.33459 1.63816 9.33459 3.65176C9.33459 5.66535 10.9674 7.30351 12.9744 7.30351ZM12.9744 0.718042C14.5867 0.718042 15.8985 2.03411 15.8985 3.65176C15.8985 5.2694 14.5867 6.58547 12.9744 6.58547C11.362 6.58547 10.0503 5.2694 10.0503 3.65176C10.0503 2.03411 11.362 0.718042 12.9744 0.718042Z" fill="white"/>
<path d="M7.97483 14.6994V12.9043C7.97483 10.8004 9.65364 9.0884 11.7169 9.0884H14.2729C16.3361 9.0884 18.0149 10.8004 18.0149 12.9043V13.0069H15.8065H14.1298V12.3811C14.1298 11.9298 13.7617 11.5605 13.3118 11.5605H12.9335C12.4837 11.5605 12.1156 11.9298 12.1156 12.3811V15.6944C12.1156 16.0124 12.1258 16.3304 12.1361 16.6586C12.1565 17.3869 13.0358 17.6947 13.639 17.2536C13.8742 17.0894 14.048 16.8843 14.232 16.6791C14.5694 16.3201 14.9681 16.115 15.4589 16.0637C16.42 15.9714 17.3095 16.4842 17.6367 17.3254C18.0149 18.3101 17.6571 19.3769 16.7778 19.9514C15.9292 20.495 14.9988 20.4232 14.232 19.7462C14.1195 19.6436 13.9969 19.541 13.8946 19.4282C13.5572 19.0897 13.1585 18.9769 12.6984 19.1615C12.5348 19.2333 12.4019 19.3154 12.3099 19.4282C12.0747 19.6949 12.0747 20.0334 12.0849 20.1873C12.0849 20.536 12.0952 21.3567 12.0952 22.2183V24.393H18.0252H26V17.2023C26 14.884 24.1188 12.9966 21.8081 12.9966H18.7306V12.9043C18.7306 10.4045 16.7308 8.37036 14.2729 8.37036H11.7169C9.25899 8.37036 7.25914 10.4045 7.25914 12.9043V13.0069H4.1919C1.88124 13.0069 0 14.8943 0 17.2125V24.393H7.97483V14.6994Z" fill="white"/>
</svg>
