<svg width="105" height="18" viewBox="0 0 105 18" fill="none" xmlns="http://www.w3.org/2000/svg">
<path d="M8.20249 0.327045H2.04042C0.897785 0.327045 0 1.22637 0 2.41184V17.3324H3.01982V10.2196H9.18189V9.72904C9.18189 8.58445 8.28411 7.68513 7.14147 7.68513H3.01982V2.8615H10.2429V2.37096C10.2429 1.22637 9.34513 0.327045 8.20249 0.327045Z" fill="white"/>
<path d="M25.1788 5.35508C25.1788 1.5534 22.4446 0.327045 18.9351 0.327045H15.2623C14.1197 0.327045 13.2219 1.22637 13.2219 2.37096V17.2915H16.2417V10.6693H18.8127L22.4446 17.2915H25.8317L21.7713 10.2237C23.8076 9.51239 25.1788 7.92632 25.1788 5.35508ZM16.2009 8.25742V2.73886H18.6086C20.9347 2.73886 22.1998 3.39292 22.1998 5.35508C22.1998 7.31723 20.9347 8.25742 18.6086 8.25742H16.2009Z" fill="white"/>
<path d="M37.0133 14.7571H31.5857V9.72904H37.6662V9.23851C37.6662 8.09392 36.7684 7.1946 35.6258 7.1946H31.5857V2.8615H38.768V2.37096C38.768 1.22637 37.8702 0.327045 36.7276 0.327045H30.6063C29.4637 0.327045 28.5659 1.22637 28.5659 2.37096V17.2915H39.0537V16.801C39.0537 15.6564 38.1559 14.7571 37.0133 14.7571Z" fill="white"/>
<path d="M55.5809 0.327045C54.7239 0.327045 53.9485 0.85847 53.6629 1.67604L51.2144 8.62534C50.8471 9.72905 50.5206 10.8736 50.1533 11.9773H50.0309C49.6636 10.8328 49.2964 9.68817 48.9291 8.62534L46.399 1.59427C46.1133 0.858465 45.3788 0.327045 44.5626 0.327045C43.42 0.327045 42.5222 1.22637 42.4406 2.37096V17.2915H45.1339V9.52465C45.1339 7.97128 44.9299 5.6821 44.7666 4.12873H44.8891L46.2357 8.09391L49.0515 15.7382H50.8471L53.6221 8.09391L55.0095 4.12873H55.132C55.0095 5.6821 54.7647 7.97128 54.7647 9.52465V17.2915H57.5397V2.28921C57.5397 1.1855 56.6827 0.327045 55.5809 0.327045Z" fill="white"/>
<path d="M67.1705 0.327045H63.865C62.7224 0.327045 61.8246 1.22637 61.8246 2.37096V17.3324H64.8444V11.078H67.2929C70.9249 11.078 73.7406 9.36115 73.7406 5.55947C73.7406 1.75779 70.9249 0.327045 67.1705 0.327045ZM67.0073 8.62534H64.8036V2.69799H66.8848C69.4149 2.69799 70.7208 3.39292 70.7208 5.51859C70.7208 7.64426 69.5374 8.62534 67.0073 8.62534Z" fill="white"/>
<path d="M86.4322 14.0213C85.6568 14.5935 84.759 14.9615 83.698 14.9615C80.8822 14.9615 79.0459 12.6314 79.0459 8.74796C79.0459 4.86452 81.0047 2.61622 83.7796 2.61622C84.7182 2.61622 85.4936 2.90236 86.1465 3.35202C86.677 3.71993 87.4116 3.5973 87.8197 3.10677C88.3094 2.53447 88.2278 1.67603 87.6156 1.26724C86.5954 0.531435 85.2895 1.52588e-05 83.7388 1.52588e-05C79.4539 1.52588e-05 75.9852 3.31115 75.9852 8.87059C75.9852 14.43 79.3723 17.6185 83.5756 17.5777C85.3304 17.5777 86.7995 17.0054 88.0237 15.9834C88.5542 15.5746 88.595 14.7571 88.1461 14.2256C87.7381 13.6942 86.9627 13.6125 86.4322 14.0213Z" fill="white"/>
<path d="M97.532 1.52588e-05C93.1247 1.52588e-05 90.0641 3.27027 90.0641 8.74796C90.0641 14.2256 93.1247 17.6185 97.532 17.6185C101.939 17.6185 105 14.2256 105 8.74796C105 3.27027 101.939 1.52588e-05 97.532 1.52588e-05ZM97.5728 15.0023C94.9203 15.0023 93.2063 12.5905 93.2063 8.74796C93.2063 4.9054 94.9203 2.61622 97.5728 2.61622C100.225 2.61622 101.939 4.94628 101.939 8.74796C101.939 12.5496 100.225 15.0023 97.5728 15.0023Z" fill="white"/>
</svg>
